# xmcd CD database file
#
# Track frame offsets:
#	150
#	16020
#	32537
#	50727
#	69562
#	94570
#	111537
#	118940
#	135862
#	152347
#	174995
#	197697
#	216152
#	229792
#	247230
#	269762
#
# Disc length: 3679 seconds
#
# Revision: 0
# Processed by: cddbd v1.4b42PL1 Copyright (c) Steve Scherf et al.
# Submitted via: CDex 1.40Beta5
#
DISCID=de0e5d10
DTITLE=Durazno de gala - Sacale el jugo
DYEAR=1989
DGENRE=Blues
TTITLE0=Ahora en mi lugar
TTITLE1=Shuffle en la estacion
TTITLE2=No mas trampas
TTITLE3=Nueve fue seis
TTITLE4=Reina ardiente
TTITLE5=Pato al agua
TTITLE6=Vuelo sobre la ribera
TTITLE7=Angel salvaje
TTITLE8=Escucheme doc
TTITLE9=Dias de carretera
TTITLE10=Flores de algodon
TTITLE11=Domesticado
TTITLE12=Dobro bugui
TTITLE13=Sumergida en fantasias
TTITLE14=Desierto
TTITLE15=Que vendra
EXTD=YEAR: 1989 ID3G:   0
EXTT0=
EXTT1=
EXTT2=
EXTT3=
EXTT4=
EXTT5=
EXTT6=
EXTT7=
EXTT8=
EXTT9=
EXTT10=
EXTT11=
EXTT12=
EXTT13=
EXTT14=
EXTT15=
PLAYORDER=
